<svg
	xmlns="http://www.w3.org/2000/svg" viewBox="0 0 64 64">
	<defs>
		<style>.cls-1{fill:#efdbb4;}.cls-2{fill:#ffeac5;}.cls-3{fill:#d8a95b;}.cls-4{fill:#f1d291;}.cls-5,.cls-7{fill:#643725;}.cls-5{opacity:0.4;}.cls-6{fill:#fff1d7;}.cls-7{opacity:0.2;}</style>
	</defs>
	<g id="Layer_34" data-name="Layer 34">
		<path class="cls-1" d="M41.35,58.21A2,2,0,0,0,40,57.7c-2.66-.13-4.85,1.44-7.42,1.47-3.06,0-5.51-2.1-7.78-1.57a2.39,2.39,0,0,0-1.25.69,2.61,2.61,0,0,0-.51,2,3.21,3.21,0,0,0,.44,1.18c1.19,1.87,7.5,2,8.59,2,1.31,0,7.66.08,9.13-1.85a3.64,3.64,0,0,0,.56-1.21A2.58,2.58,0,0,0,41.35,58.21Z"/>
		<path class="cls-1" d="M43.5,14.27c-.07-2.1-.38-2.68-.79-6-.19-1.57-.3-2.87-.35-3.72a59.22,59.22,0,0,0-19.89,0,39,39,0,0,1-.31,3.89c-.36,2.9-1,5.78-.94,7.48.06,1.42.26,2.85.26,2.85h0c.2.85.47,2.08.74,3.57a93.3,93.3,0,0,1,1.31,14.28,189.45,189.45,0,0,1,0,20.25,3.56,3.56,0,0,0,1.95,3.39,15.13,15.13,0,0,0,13.86,0,3.49,3.49,0,0,0,1.89-3.45,138.63,138.63,0,0,1-.37-20.2c.26-4.79.76-9.26,1.38-13.36A25.1,25.1,0,0,1,43.16,19,15.61,15.61,0,0,0,43.5,14.27Z"/>
		<path class="cls-2" d="M43.5,14.27c-.07-2.1-.38-2.68-.79-6-.19-1.57-.3-2.87-.35-3.72a59.22,59.22,0,0,0-19.89,0,39,39,0,0,1-.31,3.89c-.36,2.9-1,5.78-.94,7.48.06,1.42.26,2.85.26,2.85h0c.2.85.47,2.08.74,3.57a93.3,93.3,0,0,1,1.31,14.28,189.45,189.45,0,0,1,0,20.25,3.61,3.61,0,0,0,.18,1.31,1.1,1.1,0,0,0-.15.14,2.61,2.61,0,0,0-.51,2,3.21,3.21,0,0,0,.44,1.18c1.19,1.87,7.5,2,8.59,2,1.31,0,7.66.08,9.13-1.85a3.64,3.64,0,0,0,.56-1.21,2.58,2.58,0,0,0-.41-2.23,1,1,0,0,0-.24-.18,3.68,3.68,0,0,0,.11-1.24,138.63,138.63,0,0,1-.37-20.2c.26-4.79.76-9.26,1.38-13.36A25.1,25.1,0,0,1,43.16,19,15.61,15.61,0,0,0,43.5,14.27Z"/>
		<path class="cls-3" d="M42.72,14.27c-.06-2.1-.35-2.68-.73-6-.18-1.57-.28-2.87-.33-3.72a51.29,51.29,0,0,0-18.5,0c-.05,1.64-.18,3-.28,3.89-.34,2.9-.95,5.78-.88,7.48.05,1.42.24,2.85.24,2.85h0c.18.85.43,2.08.69,3.57a100.6,100.6,0,0,1,1.22,14.28c.36,7.33.3,14.12,0,20.25A3.61,3.61,0,0,0,26,60.23a13.22,13.22,0,0,0,12.9,0,3.56,3.56,0,0,0,1.76-3.45,147.9,147.9,0,0,1-.35-20.2c.24-4.79.7-9.26,1.28-13.36A27.1,27.1,0,0,1,42.41,19,16.47,16.47,0,0,0,42.72,14.27Z"/>
		<path class="cls-4" d="M42,8.57c-.18-1.69-.28-3.08-.33-4a47.13,47.13,0,0,0-9.56-.9,47.63,47.63,0,0,0-8.94.9c-.05,1.76-.18,3.2-.28,4.18-.15,1.29-.33,2.58-.5,3.78a50.28,50.28,0,0,1,20.13,0C42.38,11.61,42.2,10.54,42,8.57Z"/>
		<circle class="cls-4" cx="24.09" cy="16.71" r="0.95"/>
		<circle class="cls-4" cx="32.31" cy="23.88" r="1.44"/>
		<circle class="cls-4" cx="27.06" cy="34.74" r="0.64"/>
		<circle class="cls-4" cx="35.81" cy="35.11" r="0.9"/>
		<circle class="cls-4" cx="38.94" cy="28.06" r="0.53"/>
		<circle class="cls-4" cx="37.34" cy="15.02" r="0.64"/>
		<circle class="cls-4" cx="32.57" cy="43.23" r="1.17"/>
		<circle class="cls-4" cx="28.37" cy="52.92" r="2.27"/>
		<circle class="cls-4" cx="36.31" cy="46.1" r="1.93"/>
		<circle class="cls-4" cx="30.13" cy="49.27" r="0.42"/>
		<circle class="cls-4" cx="36.87" cy="57.7" r="1.43"/>
		<path class="cls-5" d="M43.5,14.27c-.07-2.1-.38-2.68-.79-6-.19-1.57-.3-2.87-.35-3.72a58.53,58.53,0,0,0-10.28-.84c-.61,0-1.19,0-1.78,0a57.34,57.34,0,0,1,7.56.79c.06.85.16,2.15.36,3.72.4,3.35.72,3.93.78,6A15.29,15.29,0,0,1,38.66,19a24.11,24.11,0,0,0-.92,4.19c-.63,4.1-1.12,8.57-1.38,13.36a138.63,138.63,0,0,0,.37,20.2A3.45,3.45,0,0,1,36.61,58a1.05,1.05,0,0,1,.25.18,2.61,2.61,0,0,1,.41,2.23,3.64,3.64,0,0,1-.56,1.21c-.94,1.23-3.88,1.65-6.21,1.79.73,0,1.31.05,1.57.06,1.31,0,7.66.08,9.13-1.85a3.64,3.64,0,0,0,.56-1.21,2.58,2.58,0,0,0-.41-2.23,1,1,0,0,0-.24-.18,3.68,3.68,0,0,0,.11-1.24,138.63,138.63,0,0,1-.37-20.2c.26-4.79.76-9.26,1.38-13.36A25.1,25.1,0,0,1,43.16,19,15.61,15.61,0,0,0,43.5,14.27Z"/>
		<path class="cls-6" d="M21.84,3.7C21.65,4,21,5.31,21.51,6s1.4.45,2,.24c.75-.28,1-.81,1.42-1.24,1.87-1.8,6.39-.56,7.73-.19a7.24,7.24,0,0,0,3,.53c1.4-.15,1.45-.73,2.47-.72,1.77,0,2.35,1.8,4.08,1.62a1.81,1.81,0,0,0,1.09-.53,2.43,2.43,0,0,0-.12-3.07c-.67-.69-1.63-.44-3.24-.5-2-.07-2.38-.53-5-1.08S28.56-.29,25,1.14A6,6,0,0,0,21.84,3.7Z"/>
		<path class="cls-7" d="M43.2,2.62a.48.48,0,0,0-.11-.09A2.38,2.38,0,0,1,42.82,5a1.85,1.85,0,0,1-1.09.52C40,5.7,39.42,3.94,37.65,3.9c-1,0-1.07.57-2.47.72a7.24,7.24,0,0,1-3-.53c-1.34-.36-5.86-1.61-7.73.19-.44.43-.67,1-1.42,1.24a2.32,2.32,0,0,1-1.68,0,.94.94,0,0,0,.19.46c.43.53,1.4.45,2,.24.75-.28,1-.81,1.42-1.24,1.87-1.8,6.39-.56,7.73-.19a7.24,7.24,0,0,0,3,.53c1.4-.15,1.45-.73,2.47-.72,1.77,0,2.35,1.8,4.08,1.62a1.81,1.81,0,0,0,1.09-.53A2.43,2.43,0,0,0,43.2,2.62Z"/>
	</g>
    <script>
        alert("EE");
    </script>
</svg>